<?xml version="1.0" encoding="utf-8"?>
<!-- Generator: Adobe Illustrator 15.0.2, SVG Export Plug-In . SVG Version: 6.00 Build 0)  -->
<!DOCTYPE svg PUBLIC "-//W3C//DTD SVG 1.1//EN" "http://www.w3.org/Graphics/SVG/1.1/DTD/svg11.dtd">
<svg version="1.1" id="Layer_1" xmlns="http://www.w3.org/2000/svg" xmlns:xlink="http://www.w3.org/1999/xlink" x="0px" y="0px"
	 width="114px" height="928px" viewBox="0 0 114 928" enable-background="new 0 0 114 928" xml:space="preserve">
<polyline fill="#FFFFFF" points="0,903 95,903 95,928 0,928 "/>
<rect y="864" fill="#FFFFFF" width="114" height="30"/>
<path fill="#3C5563" d="M20.91,19.85l-0.26,0.27l-0.73-0.729c1.49-1.771,1.43-4.4-0.24-6.07c-1.76-1.76-4.61-1.76-6.36,0
	c-1.76,1.76-1.75,4.6,0,6.36c1.67,1.67,4.31,1.738,6.07,0.238l0.73,0.73l-0.27,0.27L22.94,24L24,22.94L20.91,19.85z M14.38,18.62
	c-1.17-1.17-1.17-3.07,0-4.24s3.07-1.17,4.24,0s1.17,3.07,0,4.24S15.55,19.79,14.38,18.62z"/>
<path fill="#3C5563" d="M18.39,56.56c-0.06-0.13-0.12-0.29-0.18-0.48c-0.06-0.188-0.09-0.398-0.09-0.63c0-0.28,0.07-0.53,0.21-0.76
	c0.14-0.23,0.32-0.45,0.54-0.66c0.21-0.21,0.45-0.42,0.69-0.63c0.25-0.21,0.48-0.45,0.69-0.73c0.22-0.27,0.39-0.568,0.54-0.898
	c0.14-0.32,0.21-0.69,0.21-1.11c0-0.438-0.08-0.82-0.25-1.148c-0.17-0.33-0.4-0.61-0.69-0.83c-0.29-0.222-0.64-0.392-1.03-0.512
	C18.63,48.06,18.22,48,17.77,48c-0.96,0-1.88,0.262-2.77,0.78v1.88c0.74-0.72,1.51-1.08,2.32-1.08c0.25,0,0.49,0.03,0.71,0.09
	c0.22,0.062,0.42,0.15,0.59,0.271s0.31,0.28,0.41,0.46c0.1,0.18,0.15,0.398,0.15,0.64c0,0.271-0.07,0.521-0.2,0.75
	c-0.13,0.23-0.3,0.44-0.5,0.65s-0.41,0.42-0.64,0.63c-0.23,0.22-0.45,0.44-0.64,0.68c-0.2,0.23-0.36,0.48-0.5,0.75
	c-0.13,0.271-0.2,0.57-0.2,0.9c0,0.21,0.02,0.43,0.06,0.64c0.04,0.222,0.08,0.4,0.13,0.53h1.7V56.56z M18.41,59.68
	c0.23-0.21,0.34-0.46,0.34-0.762c0-0.31-0.11-0.56-0.34-0.76c-0.23-0.22-0.51-0.32-0.82-0.32c-0.32,0-0.59,0.11-0.82,0.33
	c-0.23,0.2-0.34,0.46-0.34,0.762c0,0.3,0.11,0.56,0.34,0.77c0.24,0.2,0.52,0.3,0.83,0.3C17.9,60,18.17,59.9,18.41,59.68L18.41,59.68
	z"/>
<path fill="#3C5563" d="M18,128c-2.28,0-4.36,0.8-6,2.142V132h12v-1.858C22.36,128.8,20.28,128,18,128z M18,126c1.66,0,3-1.34,3-3
	s-1.34-3-3-3s-3,1.34-3,3S16.34,126,18,126z"/>
<path fill="#FFFFFF" d="M24.89,193.23l-2.01,2.01l-2.12-2.12l2.01-2.01C22.52,191.05,22.27,191,22,191c-1.66,0-3,1.34-3,3
	c0,0.271,0.05,0.521,0.11,0.771l-4.34,4.34C14.52,199.05,14.27,199,14,199c-1.66,0-3,1.34-3,3c0,0.271,0.05,0.521,0.11,0.771
	l2.01-2.01l2.12,2.118l-2.01,2.012C13.48,204.95,13.73,205,14,205c1.66,0,3-1.34,3-3c0-0.27-0.04-0.52-0.11-0.77l4.35-4.34
	C21.48,196.96,21.73,197,22,197c1.66,0,3-1.34,3-3C25,193.73,24.95,193.48,24.89,193.23z"/>
<polygon fill="#FFFFFF" points="25,341 11,341 11,343 25,343 "/>
<path fill="#FFFFFF" d="M11,372v2h14v-2H11z M11,379h14v-2H11V379z M11,384h14v-2H11V384z"/>
<polygon fill="#FFFFFF" points="25,305 19,305 19,299 17,299 17,305 11,305 11,307 17,307 17,313 19,313 19,307 25,307 "/>
<path fill="#FFFFFF" d="M18.7,409.25c0.18,0.222,0.48,0.33,0.9,0.33c0.44,0,0.79-0.158,1.04-0.47c0.25-0.31,0.37-0.66,0.37-1.05
	c0-0.32-0.1-0.57-0.31-0.771c-0.21-0.188-0.49-0.29-0.85-0.29c-0.42,0-0.76,0.142-1.03,0.422c-0.27,0.278-0.4,0.608-0.4,1
	C18.43,408.76,18.52,409.03,18.7,409.25z M15.35,414.172c0.93-0.61,1.52-0.91,1.79-0.91c0.16,0,0.24,0.09,0.24,0.27
	c0,0.36-0.29,1.55-0.86,3.58c-0.26,0.91-0.43,1.55-0.51,1.92c-0.08,0.37-0.12,0.7-0.12,0.99s0.06,0.53,0.2,0.71
	c0.13,0.18,0.33,0.27,0.59,0.27c0.21,0,0.46-0.05,0.74-0.148c0.28-0.102,0.76-0.352,1.42-0.76c0.66-0.41,1.23-0.771,1.71-1.08
	l0.04-0.12l-0.23-0.38l-0.12-0.011c-0.89,0.591-1.44,0.881-1.64,0.881c-0.07,0-0.14-0.03-0.2-0.102
	c-0.06-0.068-0.09-0.14-0.09-0.229c0-0.32,0.3-1.5,0.89-3.53c0.34-1.18,0.56-1.98,0.67-2.41c0.11-0.42,0.16-0.77,0.16-1.05
	c0-0.21-0.06-0.38-0.18-0.521c-0.12-0.14-0.27-0.198-0.44-0.198c-0.38,0-0.9,0.18-1.58,0.54c-0.67,0.358-1.61,0.97-2.82,1.84
	L15,413.83l0.2,0.33L15.35,414.172z"/>
<path fill="#768D99" d="M22,486c0-1.479-0.81-2.738-2-3.438v6.87C21.19,488.75,22,487.48,22,486z"/>
<polygon fill="#768D99" points="11,483.382 11,488.632 13.56,488.632 18,493 18,479 13.56,483.382 "/>
<path fill="#768D99" d="M20,479.31v1.58c2.05,0.8,3.5,2.78,3.5,5.108c0,2.33-1.45,4.312-3.5,5.11v1.58c2.89-0.86,5-3.52,5-6.69
	C25,482.83,22.89,480.172,20,479.31z"/>
<path fill="#768D99" d="M23.5,522c0,0.392-0.05,0.771-0.13,1.142l1.22,1.22c0.26-0.74,0.41-1.53,0.41-2.359
	c0-3.171-2.11-5.829-5-6.689v1.58C22.05,517.69,23.5,519.672,23.5,522z M20,518.56v1.21l1.98,1.979
	C21.9,520.39,21.13,519.22,20,518.56z M24.7,527.302L12.69,515.29l-1.41,1.41l2.48,2.48l-0.2,0.2H11v5.25h2.56L18,529v-5.59l2,2
	v0.021l0.01-0.01l1.09,1.09c-0.34,0.238-0.71,0.438-1.1,0.6v1.58c0.8-0.24,1.52-0.62,2.17-1.1l1.13,1.13l1.41-1.41L24.7,527.302
	L24.7,527.302z M18,515l-1.4,1.382l1.4,1.39V515z"/>
<path fill="#768D99" d="M18,565c1.11,0,2-0.898,2-2h-4C16,564.1,16.9,565,18,565z M22,559.632v-3c0-1.86-1.28-3.41-3-3.86V552
	c0-0.55-0.45-1-1-1s-1,0.45-1,1v0.771c-1.72,0.45-3,2-3,3.86v3l-2,2h12L22,559.632z"/>
<path fill="#768D99" d="M22,592.632c0-1.86-1.28-3.41-3-3.86V588c0-0.55-0.45-1-1-1s-1,0.45-1,1v0.771c-0.01,0-0.02,0.01-0.03,0.01
	l5.03,5.03V592.632z M18,601c1.11,0,2-0.898,2-2h-4C16,600.1,16.9,601,18,601z M24.99,599.592l-0.01,0.01l-12.59-12.6L11,588.4
	l3.16,3.16c-0.09,0.34-0.16,0.689-0.16,1.06v3l-2,2h8.22L23.6,601L25,599.6L24.99,599.592z"/>
<path fill="#768D99" d="M24,628c-1.1,0-2,0.9-2,2c0,1.102,0.9,2,2,2s2-0.898,2-2C26,628.9,25.1,628,24,628z M12,628
	c-1.1,0-2,0.9-2,2c0,1.102,0.9,2,2,2s2-0.898,2-2C14,628.9,13.1,628,12,628z M18,628c-1.1,0-2,0.9-2,2c0,1.102,0.9,2,2,2
	s2-0.898,2-2C20,628.9,19.1,628,18,628z"/>
<path fill="#768D99" d="M24.14,667.97L18,662l-6.14,5.972c-0.48,0.46-0.48,1.22,0,1.68s1.25,0.46,1.73,0l4.41-4.29l4.42,4.3
	c0.48,0.46,1.25,0.46,1.73,0S24.62,668.44,24.14,667.97z"/>
<path fill="#768D99" d="M11.86,700.03L18,706l6.14-5.97c0.48-0.46,0.48-1.22,0-1.68s-1.25-0.46-1.73,0L18,702.64l-4.42-4.3
	c-0.48-0.46-1.25-0.46-1.73,0S11.38,699.56,11.86,700.03z"/>
<path fill="#ACBBC2" d="M18,729c-4.97,0-9,4.03-9,9c0,4.972,4.03,9,9,9s9-4.028,9-9C27,733.03,22.97,729,18,729z M19,743h-2v-6h2
	V743z M19,735h-2v-2h2V735z"/>
<rect x="17" y="811" fill="#ACBBC2" width="2" height="2"/>
<rect x="13" y="811" fill="#ACBBC2" width="2" height="2"/>
<rect x="13" y="807" fill="#ACBBC2" width="2" height="2"/>
<rect x="21" y="807" fill="#ACBBC2" width="2" height="2"/>
<rect x="21" y="811" fill="#ACBBC2" width="2" height="2"/>
<rect x="17" y="807" fill="#ACBBC2" width="2" height="2"/>
<path fill="#ACBBC2" d="M19,783v-2h2v2H19z M19,777h2v2h-2V777z M19,773h2v2h-2V773z M19,769h2v2h-2V769z M19,765h2v2h-2V765z
	 M15,781h2v2h-2V781z M15,777h2v2h-2V777z M15,773h2v2h-2V773z M15,769h2v2h-2V769z M15,765h2v2h-2V765z"/>
<path fill="#768D99" d="M23.77,841.74c-0.31-0.318-0.81-0.318-1.12,0l-6.51,6.78l-2.79-2.9c-0.31-0.318-0.81-0.318-1.12,0
	c-0.31,0.32-0.31,0.842,0,1.16l3.35,3.49c0.31,0.32,0.81,0.32,1.12,0l7.07-7.36C24.08,842.58,24.08,842.06,23.77,841.74z"/>
<polygon fill="#D40000" points="30.28,881.73 37.99,881.73 34.13,871.35 "/>
<path fill="#D40000" d="M0,864v30h114v-30H0z"/>
<path fill="#D40000" d="M73.33,879.47h-4.551v7.64h4.561c1.53,0,2.66-0.31,3.4-0.938c0.73-0.632,1.1-1.592,1.1-2.892
	s-0.369-2.27-1.1-2.88C75.99,879.78,74.859,879.47,73.33,879.47z"/>
<path fill="#D40000" d="M0,928h95v-25H0"/>
<path fill="#3C5563" d="M23.027,84.065h-10c-0.55,0-1,0.45-1,1v10c0,0.55,0.45,1,1,1h10c0.55,0,1-0.45,1-1v-10
	C24.027,84.515,23.577,84.065,23.027,84.065z"/>
<polygon fill="#FFFFFF" points="25,227 19.63,227 21.63,229.01 19,231.64 20.36,233 22.99,230.37 25,232.37 "/>
<polygon fill="#FFFFFF" points="15.64,235 13.01,237.63 11,235.63 11,241 16.37,241 14.37,239 17,236.36 "/>
<polygon fill="#FFFFFF" points="25,264.36 23.64,263 21.01,265.63 19,263.63 19,269 24.37,269 22.37,267 "/>
<polygon fill="#FFFFFF" points="13.63,273.01 11,275.64 12.36,277 14.99,274.37 17,276.37 17,271 11.63,271 "/>
<path fill="#3C5563" d="M22.35,158.06l-1.06,1.06c0.74,0.79,1.21,1.82,1.21,2.98c0,2.438-2.02,4.42-4.5,4.42s-4.5-1.98-4.5-4.42
	c0-1.16,0.47-2.19,1.21-2.98l-1.06-1.06c-1.02,1.05-1.65,2.47-1.65,4.04c0,3.26,2.69,5.898,6,5.898s6-2.64,6-5.898
	C24,160.54,23.37,159.12,22.35,158.06z M19,156h-2v6h2V156z"/>
<path fill="#FFFFFF" d="M96.391,56.56c-0.061-0.13-0.121-0.29-0.181-0.48c-0.06-0.188-0.09-0.398-0.09-0.63
	c0-0.28,0.069-0.53,0.21-0.76c0.141-0.23,0.32-0.45,0.54-0.66c0.21-0.21,0.45-0.42,0.69-0.63c0.25-0.21,0.479-0.45,0.688-0.73
	c0.222-0.27,0.392-0.568,0.54-0.898c0.141-0.32,0.21-0.69,0.21-1.11c0-0.438-0.08-0.82-0.25-1.148c-0.17-0.33-0.399-0.61-0.688-0.83
	c-0.291-0.222-0.642-0.392-1.031-0.512C96.63,48.06,96.221,48,95.779,48c-0.959,0-1.879,0.262-2.771,0.78v1.88
	c0.74-0.72,1.511-1.08,2.32-1.08c0.25,0,0.489,0.03,0.71,0.09c0.22,0.062,0.42,0.15,0.59,0.271s0.311,0.28,0.41,0.46
	s0.148,0.398,0.148,0.64c0,0.271-0.068,0.521-0.199,0.75c-0.131,0.23-0.301,0.44-0.5,0.65s-0.409,0.42-0.641,0.63
	c-0.229,0.22-0.449,0.44-0.64,0.68c-0.2,0.23-0.36,0.48-0.5,0.75c-0.13,0.271-0.2,0.57-0.2,0.9c0,0.21,0.02,0.43,0.061,0.64
	c0.039,0.222,0.08,0.4,0.131,0.53h1.689V56.56H96.391z M96.41,59.68c0.23-0.21,0.34-0.46,0.34-0.762c0-0.31-0.109-0.56-0.34-0.76
	c-0.23-0.22-0.51-0.32-0.82-0.32c-0.32,0-0.59,0.11-0.82,0.33c-0.229,0.2-0.34,0.46-0.34,0.762c0,0.3,0.11,0.56,0.34,0.77
	c0.24,0.2,0.521,0.3,0.83,0.3C95.9,60,96.17,59.9,96.41,59.68L96.41,59.68z"/>
<path fill="#FFFFFF" d="M96,128c-2.279,0-4.359,0.8-6,2.142V132h12v-1.858C100.359,128.8,98.279,128,96,128z M96,126
	c1.66,0,3-1.34,3-3s-1.34-3-3-3s-3,1.34-3,3S94.34,126,96,126z"/>
<path fill="#FFFFFF" d="M101,84H91c-0.55,0-1,0.45-1,1v10c0,0.55,0.45,1,1,1h10c0.55,0,1-0.45,1-1V85C102,84.45,101.55,84,101,84z
	 M99.02,93.82H92.99v-1.23l3.539-4.81H93.2v-1.6h5.7v1.35l-3.44,4.69h3.569v1.6H99.02z"/>
<path fill="#FFFFFF" d="M100.35,158.06l-1.06,1.06c0.739,0.79,1.21,1.82,1.21,2.98c0,2.438-2.02,4.42-4.5,4.42s-4.5-1.98-4.5-4.42
	c0-1.16,0.471-2.19,1.21-2.98l-1.06-1.06c-1.021,1.05-1.65,2.47-1.65,4.04c0,3.26,2.689,5.898,6,5.898s6-2.64,6-5.898
	C102,160.54,101.37,159.12,100.35,158.06z M97,156h-2v6h2V156z"/>
<path fill="#FFFFFF" d="M22.76,452.132c-0.82,1.83-2.62,3.13-4.76,3.13c-2.9,0-5.25-2.352-5.25-5.25c0-2.9,2.35-5.25,5.25-5.25
	c1.45,0,2.75,0.6,3.69,1.56l0,0l-2.82,2.82l6.13-0.01V443l-2.06,2.062c0,0-0.01,0.01-0.02,0.01c-1.26-1.27-2.99-2.069-4.92-2.069
	c-3.86,0-7,3.141-7,7c0,3.869,3.14,7,7,7c3.12,0,5.74-2.051,6.64-4.869L22.76,452.132L22.76,452.132z"/>
<path fill="#ACBBC2" d="M61.5,837h-15c-0.83,0-1.5,0.672-1.5,1.5v15c0,0.83,0.67,1.5,1.5,1.5h15c0.83,0,1.5-0.67,1.5-1.5v-15
	C63,837.672,62.33,837,61.5,837z M61,853H47v-12h14V853z M51,844h-2v2h2V844z M59,844h-2v2h2V844z M55,844h-2v2h2V844z M55,848h-2v2
	h2V848z M51,848h-2v2h2V848z M59,848h-2v2h2V848z"/>
<path fill="#F3A914" d="M58.79,807.22l-2.19,2.188l-2.01-2.01l2.19-2.18c-1.21-0.45-2.62-0.19-3.59,0.778
	c-1.02,1.021-1.25,2.521-0.71,3.771L49,813.23l1.77,1.77l3.48-3.479c1.25,0.54,2.74,0.3,3.76-0.71
	C58.98,809.842,59.23,808.43,58.79,807.22z"/>
<path fill="#768D99" d="M55,777v-5.21c0.88-0.39,1.5-1.26,1.5-2.29c0-1.38-1.12-2.5-2.5-2.5s-2.5,1.12-2.5,2.5
	c0,1.021,0.62,1.9,1.5,2.29V777h-3l4,4l4-4H55z"/>
<path fill="#768D99" d="M53,735v5.212c-0.88,0.39-1.5,1.26-1.5,2.288c0,1.382,1.12,2.5,2.5,2.5s2.5-1.118,2.5-2.5
	c0-1.02-0.62-1.898-1.5-2.288V735h3l-4-4l-4,4H53z"/>
<path fill="#768D99" d="M61.68,695.712c-0.42-0.45-1.109-0.45-1.529,0l-8.449,8.908l-3.84-4.05c-0.42-0.45-1.11-0.45-1.53,0
	s-0.43,1.17,0,1.62l4.6,4.86c0.21,0.22,0.49,0.33,0.77,0.33c0.28,0,0.56-0.11,0.77-0.33l9.208-9.71
	C62.109,696.882,62.109,696.16,61.68,695.712z"/>
<path fill="#FFFFFF" d="M98.91,19.85l-0.26,0.27l-0.73-0.729c1.49-1.771,1.43-4.4-0.24-6.07c-1.76-1.76-4.609-1.76-6.359,0
	c-1.76,1.76-1.75,4.6,0,6.36c1.671,1.67,4.311,1.738,6.07,0.238l0.729,0.73l-0.271,0.27l3.09,3.08L102,22.94L98.91,19.85z
	 M92.38,18.62c-1.17-1.17-1.17-3.07,0-4.24s3.07-1.17,4.24,0s1.17,3.07,0,4.24S93.55,19.79,92.38,18.62z"/>
<g>
	<g>
		<path d="M14.888,86.186h1.59v4.131c0,0.656,0.02,1.081,0.059,1.274c0.068,0.313,0.23,0.563,0.486,0.753
			c0.256,0.188,0.606,0.283,1.05,0.283c0.451,0,0.792-0.089,1.021-0.268c0.229-0.179,0.367-0.398,0.414-0.659
			c0.047-0.261,0.07-0.692,0.07-1.296v-4.22h1.59v4.007c0,0.916-0.043,1.563-0.129,1.939c-0.086,0.379-0.244,0.697-0.476,0.958
			c-0.23,0.261-0.54,0.468-0.926,0.622c-0.387,0.154-0.892,0.231-1.515,0.231c-0.752,0-1.322-0.084-1.71-0.252
			c-0.389-0.168-0.696-0.387-0.921-0.656c-0.226-0.269-0.374-0.551-0.446-0.846c-0.104-0.438-0.156-1.083-0.156-1.937L14.888,86.186
			L14.888,86.186z"/>
		<path fill="#FFFFFF" d="M14.888,86.186h1.59v4.131c0,0.656,0.02,1.081,0.059,1.274c0.068,0.313,0.23,0.563,0.486,0.753
			c0.256,0.188,0.606,0.283,1.05,0.283c0.451,0,0.792-0.089,1.021-0.268c0.229-0.179,0.367-0.398,0.414-0.659
			c0.047-0.261,0.07-0.692,0.07-1.296v-4.22h1.59v4.007c0,0.916-0.043,1.563-0.129,1.939c-0.086,0.379-0.244,0.697-0.476,0.958
			c-0.23,0.261-0.54,0.468-0.926,0.622c-0.387,0.154-0.892,0.231-1.515,0.231c-0.752,0-1.322-0.084-1.71-0.252
			c-0.389-0.168-0.696-0.387-0.921-0.656c-0.226-0.269-0.374-0.551-0.446-0.846c-0.104-0.438-0.156-1.083-0.156-1.937L14.888,86.186
			L14.888,86.186z"/>
	</g>
</g>
<g enable-background="new    ">
	<path fill="#FFFFFF" d="M3.598,906.945h3.469v9.305c0,1.477,0.043,2.434,0.129,2.871c0.148,0.703,0.502,1.268,1.061,1.693
		s1.322,0.639,2.291,0.639c0.984,0,1.727-0.201,2.227-0.604s0.801-0.896,0.902-1.482s0.152-1.559,0.152-2.918v-9.504h3.469v9.023
		c0,2.063-0.094,3.52-0.281,4.371s-0.533,1.57-1.037,2.156s-1.178,1.053-2.021,1.4s-1.945,0.521-3.305,0.521
		c-1.641,0-2.885-0.189-3.732-0.568s-1.518-0.871-2.01-1.477s-0.816-1.24-0.973-1.904c-0.227-0.984-0.34-2.438-0.34-4.359V906.945z"
		/>
	<path fill="#FFFFFF" d="M20.988,924.125v-17.18h3.375l7.031,11.473v-11.473h3.223v17.18h-3.48l-6.926-11.203v11.203H20.988z"/>
	<path fill="#FFFFFF" d="M38.238,924.125v-17.18h5.191l3.117,11.719l3.082-11.719h5.203v17.18h-3.223v-13.523l-3.41,13.523h-3.34
		l-3.398-13.523v13.523H38.238z"/>
	<path fill="#FFFFFF" d="M57.398,918.535l3.375-0.328c0.203,1.133,0.615,1.965,1.236,2.496s1.459,0.797,2.514,0.797
		c1.117,0,1.959-0.236,2.525-0.709s0.85-1.025,0.85-1.658c0-0.406-0.119-0.752-0.357-1.037s-0.654-0.533-1.248-0.744
		c-0.406-0.141-1.332-0.391-2.777-0.75c-1.859-0.461-3.164-1.027-3.914-1.699c-1.055-0.945-1.582-2.098-1.582-3.457
		c0-0.875,0.248-1.693,0.744-2.455s1.211-1.342,2.145-1.74s2.061-0.598,3.381-0.598c2.156,0,3.779,0.473,4.869,1.418
		s1.662,2.207,1.717,3.785l-3.469,0.152c-0.148-0.883-0.467-1.518-0.955-1.904s-1.221-0.58-2.197-0.58
		c-1.008,0-1.797,0.207-2.367,0.621c-0.367,0.266-0.551,0.621-0.551,1.066c0,0.406,0.172,0.754,0.516,1.043
		c0.438,0.367,1.5,0.75,3.188,1.148s2.936,0.811,3.744,1.236s1.441,1.008,1.898,1.746s0.686,1.65,0.686,2.736
		c0,0.984-0.273,1.906-0.82,2.766s-1.32,1.498-2.32,1.916s-2.246,0.627-3.738,0.627c-2.172,0-3.84-0.502-5.004-1.506
		S57.625,920.457,57.398,918.535z"/>
</g>
<g>
	<g>
		<path d="M4.707,868.616h4.191v11.243c0,1.784,0.052,2.94,0.155,3.469c0.18,0.851,0.606,1.532,1.281,2.047
			c0.675,0.516,1.598,0.771,2.769,0.771c1.189,0,2.086-0.243,2.69-0.729c0.604-0.486,0.968-1.084,1.091-1.791
			c0.122-0.709,0.184-1.885,0.184-3.526v-11.483h4.191v10.903c0,2.492-0.113,4.253-0.34,5.281s-0.645,1.897-1.253,2.604
			c-0.609,0.709-1.423,1.272-2.442,1.692s-2.352,0.63-3.994,0.63c-1.982,0-3.485-0.229-4.51-0.688
			c-1.025-0.457-1.834-1.053-2.428-1.783c-0.596-0.731-0.987-1.498-1.176-2.302c-0.273-1.188-0.41-2.944-0.41-5.268L4.707,868.616
			L4.707,868.616z"/>
		<path d="M25.721,889.375v-20.759h4.078l8.496,13.862v-13.862h3.895v20.759h-4.206l-8.368-13.536v13.536H25.721z"/>
		<path d="M46.564,889.375v-20.759h6.272l3.767,14.16l3.725-14.16h6.287v20.759h-3.895v-16.341L58.6,889.375h-4.035l-4.106-16.341
			v16.341H46.564z"/>
		<path d="M69.716,882.621l4.078-0.396c0.245,1.368,0.743,2.374,1.494,3.016c0.75,0.643,1.763,0.963,3.037,0.963
			c1.35,0,2.366-0.284,3.052-0.855s1.025-1.239,1.025-2.004c0-0.491-0.144-0.908-0.432-1.253c-0.287-0.346-0.791-0.646-1.509-0.899
			c-0.489-0.17-1.608-0.472-3.354-0.906c-2.248-0.557-3.823-1.241-4.729-2.054c-1.274-1.142-1.911-2.534-1.911-4.177
			c0-1.059,0.299-2.046,0.898-2.967s1.464-1.621,2.592-2.104s2.488-0.723,4.085-0.723c2.604,0,4.565,0.57,5.884,1.714
			c1.316,1.143,2.008,2.667,2.074,4.573l-4.191,0.185c-0.18-1.066-0.563-1.834-1.154-2.301c-0.59-0.469-1.475-0.701-2.653-0.701
			c-1.219,0-2.172,0.25-2.86,0.751c-0.443,0.32-0.666,0.75-0.666,1.288c0,0.491,0.209,0.911,0.623,1.261
			c0.528,0.443,1.813,0.906,3.853,1.387c2.038,0.482,3.547,0.979,4.524,1.494c0.977,0.516,1.74,1.219,2.293,2.11
			s0.828,1.994,0.828,3.306c0,1.189-0.33,2.305-0.99,3.343c-0.662,1.038-1.597,1.811-2.805,2.314s-2.714,0.758-4.517,0.758
			c-2.625,0-4.642-0.605-6.048-1.818C70.831,886.713,69.988,884.943,69.716,882.621z"/>
	</g>
	<g>
		<path fill="#FFFFFF" d="M4.707,868.616h4.191v11.243c0,1.784,0.052,2.94,0.155,3.469c0.18,0.851,0.606,1.532,1.281,2.047
			c0.675,0.516,1.598,0.771,2.769,0.771c1.189,0,2.086-0.243,2.69-0.729c0.604-0.486,0.968-1.084,1.091-1.791
			c0.122-0.709,0.184-1.885,0.184-3.526v-11.483h4.191v10.903c0,2.492-0.113,4.253-0.34,5.281s-0.645,1.897-1.253,2.604
			c-0.609,0.709-1.423,1.272-2.442,1.692s-2.352,0.63-3.994,0.63c-1.982,0-3.485-0.229-4.51-0.688
			c-1.025-0.457-1.834-1.053-2.428-1.783c-0.596-0.731-0.987-1.498-1.176-2.302c-0.273-1.188-0.41-2.944-0.41-5.268L4.707,868.616
			L4.707,868.616z"/>
		<path fill="#FFFFFF" d="M25.721,889.375v-20.759h4.078l8.496,13.862v-13.862h3.895v20.759h-4.206l-8.368-13.536v13.536H25.721z"/>
		<path fill="#FFFFFF" d="M46.564,889.375v-20.759h6.272l3.767,14.16l3.725-14.16h6.287v20.759h-3.895v-16.341L58.6,889.375h-4.035
			l-4.106-16.341v16.341H46.564z"/>
		<path fill="#FFFFFF" d="M69.716,882.621l4.078-0.396c0.245,1.368,0.743,2.374,1.494,3.016c0.75,0.643,1.763,0.963,3.037,0.963
			c1.35,0,2.366-0.284,3.052-0.855s1.025-1.239,1.025-2.004c0-0.491-0.144-0.908-0.432-1.253c-0.287-0.346-0.791-0.646-1.509-0.899
			c-0.489-0.17-1.608-0.472-3.354-0.906c-2.248-0.557-3.823-1.241-4.729-2.054c-1.274-1.142-1.911-2.534-1.911-4.177
			c0-1.059,0.299-2.046,0.898-2.967s1.464-1.621,2.592-2.104s2.488-0.723,4.085-0.723c2.604,0,4.565,0.57,5.884,1.714
			c1.316,1.143,2.008,2.667,2.074,4.573l-4.191,0.185c-0.18-1.066-0.563-1.834-1.154-2.301c-0.59-0.469-1.475-0.701-2.653-0.701
			c-1.219,0-2.172,0.25-2.86,0.751c-0.443,0.32-0.666,0.75-0.666,1.288c0,0.491,0.209,0.911,0.623,1.261
			c0.528,0.443,1.813,0.906,3.853,1.387c2.038,0.482,3.547,0.979,4.524,1.494c0.977,0.516,1.74,1.219,2.293,2.11
			s0.828,1.994,0.828,3.306c0,1.189-0.33,2.305-0.99,3.343c-0.662,1.038-1.597,1.811-2.805,2.314s-2.714,0.758-4.517,0.758
			c-2.625,0-4.642-0.605-6.048-1.818C70.831,886.713,69.988,884.943,69.716,882.621z"/>
	</g>
</g>
</svg>
